<svg id="Layer_1" data-name="Layer 1" xmlns="http://www.w3.org/2000/svg" viewBox="0 0 44.38 49.41">
  <defs>
    <style>
      .cls-1 {
        opacity: 0.85;
      }

      .cls-2 {
        fill: #202020;
      }

      .cls-3 {
        fill: #ff2058;
      }
    </style>
  </defs>
  <g class="cls-1">
    <g>
      <path class="cls-2" d="M65.31,68.22c-.21.1-.44.17-.66.25a1.08,1.08,0,0,1,.47.17C65.31,68.68,65.29,68.45,65.31,68.22Z" transform="translate(-34.54 -38.74)"/>
      <path class="cls-2" d="M64,68.68l-.12,0-.07.11Z" transform="translate(-34.54 -38.74)"/>
      <path class="cls-2" d="M63,69.35a1.28,1.28,0,0,0,.58-.26A.75.75,0,0,0,63,69.35Z" transform="translate(-34.54 -38.74)"/>
      <path class="cls-2" d="M64,69.22c-.12-.11-.21-.24-.14-.38h0l-.3.26A.89.89,0,0,1,64,69.22Z" transform="translate(-34.54 -38.74)"/>
      <path class="cls-2" d="M64,69.22a4,4,0,0,0,.35.23A1.92,1.92,0,0,0,64,69.22Z" transform="translate(-34.54 -38.74)"/>
      <path class="cls-2" d="M64.89,72.5c-.1.15-.4-.76-.59-.46-.51.47-.92,1-1.51,1.24-.21.28-.92-.63-1.12-.35-.54.43-1.89,2.06-.94,1.78a25.09,25.09,0,0,0,3.54-1.61c.92-.74,1.73-1.55,2.56-2.36a2.63,2.63,0,0,1,.84-.33c-.41,0-.83.09-1.27.16C65.79,70.55,65.68,72,64.89,72.5Z" transform="translate(-34.54 -38.74)"/>
      <path class="cls-2" d="M69.89,65.8l0,.49c-.88-.14-1.12.41-1.45,1l.5.23c.24-.26.1-.49-.26-.47a2.11,2.11,0,0,0,1.9-.88C70.32,66,70.12,65.77,69.89,65.8Z" transform="translate(-34.54 -38.74)"/>
      <path class="cls-2" d="M70.77,65.82c-.08.11-.15.22-.24.33l.07,0,.2-.38Z" transform="translate(-34.54 -38.74)"/>
      <path class="cls-2" d="M60.65,71a26.63,26.63,0,0,1-4.84.82c-.09.2-.14.43-.32.34a1.22,1.22,0,0,0-.42-.29l-.69,0-.23.1h0c-.12.12-.06.27,0,.4a2.87,2.87,0,0,1,.29.31c-.06-.07-.19-.19-.29-.31a1,1,0,0,0-.4-.23,1.2,1.2,0,0,1-.65.11.88.88,0,0,1,.65-.11c.13,0,.25-.12.37-.18l.1-.1c-.53,0-1,0-1.58,0l-.32.11c-.36.17-.73.33-1-.11h-.28l.06.08L51,71.91q-.59,0-1.14-.06a4.32,4.32,0,0,1-.76.53l-.22-.49a.77.77,0,0,1-.46.43,5,5,0,0,0,.52.85c.28.5.63-.94.95,0-.32-.9-.67.54-.95,0a5,5,0,0,1-.52-.85.85.85,0,0,1-1-.69c.5-.27.72.17,1,.69a.77.77,0,0,0,.46-.43l.22.49a4.32,4.32,0,0,0,.76-.53,7.77,7.77,0,0,1-2.05-.45,4.12,4.12,0,0,1-.47-.22,8.59,8.59,0,0,1-3.62-4.73,16.38,16.38,0,0,1-1-6.63,20.84,20.84,0,0,1,.64-4,14,14,0,0,1,1.29-3.49,8.93,8.93,0,0,1,1.47-2,5.84,5.84,0,0,1,1.89-1.27,8.64,8.64,0,0,1,6.47.09,11,11,0,0,0,3.52.33c1.27,0,2.55-.07,3.43,0a4.12,4.12,0,0,0,1.91-3.28,7,7,0,0,0-.13-2.5c-.61-1.85-1.39-2.33-2.39-2.61a15.06,15.06,0,0,1-4.14-1.34c1.28.56.8,1.13-.24,1.28a5.73,5.73,0,0,1-4.06-1.09c-1.93-1.6-4.43-1.4-7-.26a22.43,22.43,0,0,0-7.35,5.93A12,12,0,0,0,36,50a16.28,16.28,0,0,0-.92,2.83,19.64,19.64,0,0,0-.42,2.57,24.4,24.4,0,0,0,0,5.33,29.44,29.44,0,0,0,1.22,5.61c.31,1,.67,1.91,1.09,2.87a24.93,24.93,0,0,0,1.54,3A10,10,0,0,0,45,76.08l.53.18a15,15,0,0,0,4,1,8.39,8.39,0,0,0,4-1.07,21.53,21.53,0,0,1-3.91.88c-.63,0-.39-.28.07-.63a10.79,10.79,0,0,1,1.38-.93c.27-.24.81.78,1.06.54.59-.06,1.06-.55,1.65-.89.24-.24.32.72.45.6.82-.32,1.32-1.63,1.89-1.44l1.21.25a1.76,1.76,0,0,0,.72-.06l.42-.32a3.45,3.45,0,0,1-.39-1c.23,0,.58.17.81.17-.23,0-.58-.16-.81-.17a3.45,3.45,0,0,0,.39,1c1-.76,2.19-1.53,3.24-2.26l0-.07a2.38,2.38,0,0,1-2.17-.06c.35.14.37.41,0,.54l-.37-.42c.55-.38,1.07-.79,1.8-.25l.3-.42c.22.08.29.37.4.61.13-.06.26-.12.38-.19A6,6,0,0,0,60.65,71Z" transform="translate(-34.54 -38.74)"/>
      <path class="cls-2" d="M53.76,72.11l.32-.11-1.33,0C53,72.46,53.4,72.29,53.76,72.11Z" transform="translate(-34.54 -38.74)"/>
    </g>
  </g>
  <g class="cls-1">
    <g>
      <path class="cls-3" d="M56,67.74l.63,0a1.29,1.29,0,0,1-.34-.33C56.17,67.32,56.11,67.54,56,67.74Z" transform="translate(-34.54 -38.74)"/>
      <path class="cls-3" d="M57.23,67.78h.11l.09-.08Z" transform="translate(-34.54 -38.74)"/>
      <path class="cls-3" d="M58.32,67.5a1,1,0,0,0-.56,0A.63.63,0,0,0,58.32,67.5Z" transform="translate(-34.54 -38.74)"/>
      <path class="cls-3" d="M57.43,67.29a.33.33,0,0,1,0,.4h0l.33-.15A.88.88,0,0,1,57.43,67.29Z" transform="translate(-34.54 -38.74)"/>
      <path class="cls-3" d="M57.43,67.29c-.07-.13-.18-.26-.22-.34A2.22,2.22,0,0,0,57.43,67.29Z" transform="translate(-34.54 -38.74)"/>
      <path class="cls-3" d="M57.59,63.89c.11-.11.12.85.34.63.52-.29,1-.73,1.47-.74.22-.22.59.84.82.63.52-.28,1.91-1.56,1.1-1.5-1.23.13-2,.4-3.11.61-.88.41-1.71.9-2.58,1.3a1.79,1.79,0,0,1-.73,0c.32.12.64.25,1,.37S56.86,64.14,57.59,63.89Z" transform="translate(-34.54 -38.74)"/>
      <path class="cls-3" d="M51.34,67.55l.29-.36c.56.64,1,.31,1.54,0l-.28-.45c-.29.08-.29.35,0,.53a1.88,1.88,0,0,0-1.81-.39C51.13,67.13,51.16,67.43,51.34,67.55Z" transform="translate(-34.54 -38.74)"/>
      <path class="cls-3" d="M50.74,67a2.19,2.19,0,0,1,.33-.12l0-.08-.33.18Z" transform="translate(-34.54 -38.74)"/>
      <path class="cls-3" d="M60.64,66.58a28.85,28.85,0,0,1,4.21.2c.11-.18.2-.39.33-.28a1,1,0,0,0,.3.36l.58.09.21-.06h0a.33.33,0,0,0,0-.4,2,2,0,0,1-.18-.36c0,.08.12.22.18.36a.93.93,0,0,0,.29.3.83.83,0,0,1,.56,0,.67.67,0,0,1-.56,0,2.19,2.19,0,0,0-.34.1l-.1.08c.44.07.87.16,1.3.27l.28,0c.32-.07.67-.14.73.36l.19.08v-.1l0,.11a5.79,5.79,0,0,1,.79.39,2.72,2.72,0,0,1,.82-.23s0,.33-.09.5a.82.82,0,0,1,.59-.22,3.71,3.71,0,0,0,0-.92c0-.53-1,.6-.78-.3-.18.9.8-.23.78.3a3.71,3.71,0,0,1,0,.92c.37,0,.59.41.43.94-.57,0-.49-.39-.43-.94a.82.82,0,0,0-.59.22c0-.17.09-.5.09-.5a2.72,2.72,0,0,0-.82.23,5,5,0,0,1,1.29,1,3.86,3.86,0,0,1,.95,2.34,6.33,6.33,0,0,1-.35,2.35A8,8,0,0,1,68.14,78a8.22,8.22,0,0,1-2.82,1.07,9.16,9.16,0,0,1-1.47.15,5.09,5.09,0,0,1-.7,0,2.13,2.13,0,0,1-.43-.13,4,4,0,0,1-1.25-.64,2.52,2.52,0,0,1-.67-1,9,9,0,0,1-.27-.92,3.57,3.57,0,0,1-.05-1.08,2.27,2.27,0,0,1,1.11-1.75,1.75,1.75,0,0,0,.82-.85,8.44,8.44,0,0,1,.4-.75c-.3-.76-.64-2.16-1.12-3.33a6.9,6.9,0,0,0-1.3-2.11c-1.44-1.26-2.5-1.06-3.41-.49s-1.83,1.49-3.63,2.92c.57-.52.93-.55,1.09-.36a1.47,1.47,0,0,1,0,1.15,10.15,10.15,0,0,1-2.26,3.83c-1.93,1.9-1.66,4.78-.47,7,.14.29.3.56.48.86s.43.7.67,1a15.67,15.67,0,0,0,5.32,4.8,8.67,8.67,0,0,0,5,.67A15,15,0,0,0,65.06,88a11.72,11.72,0,0,0,1.36-.19,12.87,12.87,0,0,0,2.63-.8,14.86,14.86,0,0,0,4.71-3.15A16.81,16.81,0,0,0,77.19,79a18.17,18.17,0,0,0,1.1-2.89,17.67,17.67,0,0,0,.63-3.78,6.58,6.58,0,0,0-1-3.64,9.21,9.21,0,0,0-2.3-2.42,13.94,13.94,0,0,0-3.21-2.87,7.28,7.28,0,0,0-2.68-.71,5.12,5.12,0,0,0-1.13,0,5.65,5.65,0,0,0-.93.17h.95a6.63,6.63,0,0,1,1,0,9.57,9.57,0,0,1,2.55.59c.61.27.23.42-.36.52s-1.41.23-1.81.25-.6-1-1-.9a3.71,3.71,0,0,0-1.83.44c-.28.19-.15-.76-.29-.67-.84.15-1.45,1.36-1.9,1.07s-.66-.32-1-.48a1.37,1.37,0,0,0-.6-.08l-.41.23a4,4,0,0,1,.15,1c-.18-.06-.45-.28-.64-.33.19,0,.46.27.64.33a4,4,0,0,0-.15-1A30.86,30.86,0,0,1,60,65.33v.09a1.87,1.87,0,0,1,1.78.57c-.26-.21-.23-.48.08-.53l.22.48c-.53.26-1,.53-1.54-.16l-.34.33C60,66,60,65.67,60,65.42a1.4,1.4,0,0,0-.34.08A4.9,4.9,0,0,0,60.64,66.58Z" transform="translate(-34.54 -38.74)"/>
      <path class="cls-3" d="M66.62,66.82l-.28.05c.37.07.73.15,1.09.24C67.3,66.63,67,66.71,66.62,66.82Z" transform="translate(-34.54 -38.74)"/>
    </g>
  </g>
</svg>
